<?xml version="1.0" encoding="utf-8"?>
<!-- Generator: Adobe Illustrator 25.1.0, SVG Export Plug-In . SVG Version: 6.00 Build 0)  -->
<svg version="1.1" id="Layer_1" xmlns="http://www.w3.org/2000/svg" xmlns:xlink="http://www.w3.org/1999/xlink" x="0px" y="0px"
	 viewBox="0 0 117.2 117.2" style="enable-background:new 0 0 117.2 117.2;" xml:space="preserve">
<style type="text/css">
	.st0{fill:#19191C;}
	.st1{fill:#ea110c;}
</style>
<g>
	<path class="st0" d="M60.6,57.2V4h14.6v108.7H60.6v-6.6c-4.6,5.6-11.6,8.7-18.8,8.5c-9.2,0-16.6-3.3-22.1-9.8
		c-5.5-6.6-8.4-15-8.2-23.6c0-9.9,3-17.9,8.9-23.9c5.7-5.9,13.5-9.2,21.7-9C49.8,48.3,56,51.3,60.6,57.2z M43.7,61.4
		c-4.9-0.1-9.5,2-12.6,5.8c-3.3,4-5,9.1-4.9,14.3c-0.1,5.2,1.6,10.2,4.9,14.2c3.1,3.8,7.7,6,12.6,5.8c4.7,0.1,9.3-1.8,12.6-5.2
		c3.4-3.5,5.2-8.4,5.2-14.6c0-6.5-1.7-11.5-5.2-15C53,63.2,48.5,61.3,43.7,61.4z"/>
	<path class="st1" d="M90.5,111.9c-3.5-3.5-3.6-9.2-0.1-12.7s9.2-3.6,12.7-0.1c3.5,3.5,3.6,9.2,0.1,12.7c-1.7,1.7-4,2.7-6.4,2.7
		C94.4,114.6,92.1,113.6,90.5,111.9z"/>
</g>
</svg>
